<svg xmlns="http://www.w3.org/2000/svg" viewBox="0 0 651.57 139.61"><defs><style>.cls-1{fill:#f2e3b6;}</style></defs><title>Asset 19</title><g id="Layer_2" data-name="Layer 2"><g id="Layer_1-2" data-name="Layer 1"><polygon class="cls-1" points="650.28 26.11 650.28 104.48 601.5 104.48 650.28 26.11"/><path class="cls-1" d="M545,41.55V.06H0V139.61H545V113.55l44.7-72Zm-85.77,58.74a30.75,30.75,0,0,1,0-61c-1.65,1.31-14.69,12.1-14.69,30.53S457.59,99,459.26,100.29Zm52.94,6.6a52.35,52.35,0,0,1-37.13,15.38H459.26c28.94-.13,50.65-23,50.65-52.51s-22.68-52.25-50.65-52.38v-.09h15.81a52.5,52.5,0,0,1,37.13,89.6ZM17.42,122.36Q43.88,69.83,70.33,17.3q26.08,52.52,52.15,105.06ZM252.5,72.76a49.6,49.6,0,0,1-49.59,49.6h-5.78a49.6,49.6,0,0,1-49.6-49.6V17.38h105Zm130.11-3H356.37v52.49H303.88V69.79H277.63V17.3h105Z"/><polygon class="cls-1" points="651.57 120.45 651.57 139.55 632.48 139.55 632.48 134.6 647.71 134.6 647.71 120.45 651.57 120.45"/><polygon class="cls-1" points="651.57 0 651.57 18.83 647.71 18.83 647.71 4.95 632.48 4.95 632.48 0 651.57 0"/><polygon class="cls-1" points="559.91 0 559.91 4.95 545 4.95 545 18.83 541.14 18.83 541.14 0 559.91 0"/><polygon class="cls-1" points="559.91 134.6 559.91 139.55 541.14 139.55 541.14 120.45 545 120.45 545 134.6 559.91 134.6"/></g></g></svg>